<?xml version="1.0" standalone="no"?>
<svg xmlns:xlink="http://www.w3.org/1999/xlink" id="wave" style="transform:rotate(0deg); transition: 0.3s" viewBox="0 0 1440 490" version="1.1" xmlns="http://www.w3.org/2000/svg"><defs><linearGradient id="sw-gradient-0" x1="0" x2="0" y1="1" y2="0"><stop stop-color="rgba(24, 149, 125, 1)" offset="0%"/><stop stop-color="rgba(151, 252, 196, 1)" offset="100%"/></linearGradient></defs><path style="transform:translate(0, 0px); opacity:1" fill="url(#sw-gradient-0)" d="M0,196L48,196C96,196,192,196,288,228.7C384,261,480,327,576,343C672,359,768,327,864,285.8C960,245,1056,196,1152,187.8C1248,180,1344,212,1440,212.3C1536,212,1632,180,1728,212.3C1824,245,1920,343,2016,392C2112,441,2208,441,2304,400.2C2400,359,2496,278,2592,204.2C2688,131,2784,65,2880,65.3C2976,65,3072,131,3168,187.8C3264,245,3360,294,3456,261.3C3552,229,3648,114,3744,89.8C3840,65,3936,131,4032,130.7C4128,131,4224,65,4320,81.7C4416,98,4512,196,4608,269.5C4704,343,4800,392,4896,416.5C4992,441,5088,441,5184,400.2C5280,359,5376,278,5472,245C5568,212,5664,229,5760,212.3C5856,196,5952,147,6048,155.2C6144,163,6240,229,6336,236.8C6432,245,6528,196,6624,196C6720,196,6816,245,6864,269.5L6912,294L6912,490L6864,490C6816,490,6720,490,6624,490C6528,490,6432,490,6336,490C6240,490,6144,490,6048,490C5952,490,5856,490,5760,490C5664,490,5568,490,5472,490C5376,490,5280,490,5184,490C5088,490,4992,490,4896,490C4800,490,4704,490,4608,490C4512,490,4416,490,4320,490C4224,490,4128,490,4032,490C3936,490,3840,490,3744,490C3648,490,3552,490,3456,490C3360,490,3264,490,3168,490C3072,490,2976,490,2880,490C2784,490,2688,490,2592,490C2496,490,2400,490,2304,490C2208,490,2112,490,2016,490C1920,490,1824,490,1728,490C1632,490,1536,490,1440,490C1344,490,1248,490,1152,490C1056,490,960,490,864,490C768,490,672,490,576,490C480,490,384,490,288,490C192,490,96,490,48,490L0,490Z"/><defs><linearGradient id="sw-gradient-1" x1="0" x2="0" y1="1" y2="0"><stop stop-color="rgba(24, 149, 125, 1)" offset="0%"/><stop stop-color="rgba(151, 252, 196, 1)" offset="100%"/></linearGradient></defs><path style="transform:translate(0, 50px); opacity:0.9" fill="url(#sw-gradient-1)" d="M0,0L48,16.3C96,33,192,65,288,114.3C384,163,480,229,576,220.5C672,212,768,131,864,147C960,163,1056,278,1152,302.2C1248,327,1344,261,1440,228.7C1536,196,1632,196,1728,171.5C1824,147,1920,98,2016,106.2C2112,114,2208,180,2304,212.3C2400,245,2496,245,2592,269.5C2688,294,2784,343,2880,334.8C2976,327,3072,261,3168,245C3264,229,3360,261,3456,236.8C3552,212,3648,131,3744,98C3840,65,3936,82,4032,138.8C4128,196,4224,294,4320,277.7C4416,261,4512,131,4608,114.3C4704,98,4800,196,4896,253.2C4992,310,5088,327,5184,277.7C5280,229,5376,114,5472,57.2C5568,0,5664,0,5760,57.2C5856,114,5952,229,6048,245C6144,261,6240,180,6336,122.5C6432,65,6528,33,6624,73.5C6720,114,6816,229,6864,285.8L6912,343L6912,490L6864,490C6816,490,6720,490,6624,490C6528,490,6432,490,6336,490C6240,490,6144,490,6048,490C5952,490,5856,490,5760,490C5664,490,5568,490,5472,490C5376,490,5280,490,5184,490C5088,490,4992,490,4896,490C4800,490,4704,490,4608,490C4512,490,4416,490,4320,490C4224,490,4128,490,4032,490C3936,490,3840,490,3744,490C3648,490,3552,490,3456,490C3360,490,3264,490,3168,490C3072,490,2976,490,2880,490C2784,490,2688,490,2592,490C2496,490,2400,490,2304,490C2208,490,2112,490,2016,490C1920,490,1824,490,1728,490C1632,490,1536,490,1440,490C1344,490,1248,490,1152,490C1056,490,960,490,864,490C768,490,672,490,576,490C480,490,384,490,288,490C192,490,96,490,48,490L0,490Z"/></svg>